<svg id="Capa_1" data-name="Capa 1" xmlns="http://www.w3.org/2000/svg" viewBox="0 0 290.96 57.63"><defs><style>.cls-1{fill:#94edd9;}.cls-2{fill:#5a1ac8;}</style></defs><path class="cls-1" d="M291,57.63a1854.51,1854.51,0,0,0-291,0V34.16a1854.51,1854.51,0,0,1,291,0Z"/><path class="cls-2" d="M33.05,16.49a12.56,12.56,0,0,0-4.59-2.91,16.25,16.25,0,0,0-5.68-1,15,15,0,0,0-7.87,2,13.58,13.58,0,0,0-5.19,5.58A18,18,0,0,0,7.89,28.5a18.11,18.11,0,0,0,1.83,8.41A13,13,0,0,0,15,42.39a16.31,16.31,0,0,0,8.16,1.93,17.85,17.85,0,0,0,6.7-1.17,12.25,12.25,0,0,0,4.76-3.28A10.61,10.61,0,0,0,37,34.92l-7.88-.51a5.14,5.14,0,0,1-1.28,2,5.2,5.2,0,0,1-2,1.2,7.93,7.93,0,0,1-2.6.4,7.3,7.3,0,0,1-3.7-.9,6,6,0,0,1-2.4-2.56,8.47,8.47,0,0,1-.85-3.93v0H37.22V28.21a19.36,19.36,0,0,0-1.1-6.86A13.09,13.09,0,0,0,33.05,16.49ZM16.34,25.26a6.7,6.7,0,0,1,.83-3,6.24,6.24,0,0,1,2.33-2.37A6.46,6.46,0,0,1,22.92,19a6.42,6.42,0,0,1,3.27.81A5.64,5.64,0,0,1,28.4,22a6.42,6.42,0,0,1,.8,3.25Z"/><rect class="cls-2" x="39.97" y="2.77" width="8.52" height="40.96"/><path class="cls-2" d="M72.77,18.16h-.26a12.07,12.07,0,0,0-1.63-2.53,8.8,8.8,0,0,0-2.8-2.15,9.43,9.43,0,0,0-4.31-.87,11.52,11.52,0,0,0-6.21,1.75A12.17,12.17,0,0,0,53,19.62a19.94,19.94,0,0,0-1.7,8.78A20.38,20.38,0,0,0,53,37.07a12.22,12.22,0,0,0,4.48,5.34,11.44,11.44,0,0,0,6.33,1.81A9.76,9.76,0,0,0,68,43.4a8.66,8.66,0,0,0,2.82-2.06,11.39,11.39,0,0,0,1.69-2.53h.36v4.91h8.4V2.77h-8.5Zm-.59,15A7.22,7.22,0,0,1,70,36.31a6,6,0,0,1-7,0,7,7,0,0,1-2.18-3.19A13.77,13.77,0,0,1,60,28.37a13.37,13.37,0,0,1,.74-4.68A7,7,0,0,1,63,20.52a5.53,5.53,0,0,1,3.54-1.14,5.62,5.62,0,0,1,3.5,1.1,6.93,6.93,0,0,1,2.2,3.12A13.72,13.72,0,0,1,73,28.37,13.65,13.65,0,0,1,72.18,33.15Z"/><path class="cls-2" d="M89.71.43A4.55,4.55,0,0,0,86.47,1.7a4,4,0,0,0-1.36,3.05,4,4,0,0,0,1.36,3,4.85,4.85,0,0,0,6.51,0,4.06,4.06,0,0,0,1.35-3,4,4,0,0,0-1.35-3A4.62,4.62,0,0,0,89.71.43Z"/><rect class="cls-2" x="85.43" y="13" width="8.52" height="30.72"/><path class="cls-2" d="M118.33,18.16H118a12.64,12.64,0,0,0-1.65-2.53,8.74,8.74,0,0,0-2.81-2.15,9.48,9.48,0,0,0-4.32-.87A11.65,11.65,0,0,0,103,14.35a12.11,12.11,0,0,0-4.53,5.24,19.9,19.9,0,0,0-1.7,8.72,18.76,18.76,0,0,0,1.67,8.42,11.26,11.26,0,0,0,4.5,4.94,12.43,12.43,0,0,0,6.29,1.61,11,11,0,0,0,4.2-.72,8.53,8.53,0,0,0,2.88-1.86A8.07,8.07,0,0,0,118,38.28h.36V43.9a5,5,0,0,1-1.81,4.34A7.6,7.6,0,0,1,112,49.56a9.08,9.08,0,0,1-3.15-.48,5.92,5.92,0,0,1-2.07-1.23,4.9,4.9,0,0,1-1.14-1.59l-7.88,1.06A9.13,9.13,0,0,0,100,51.54a12,12,0,0,0,4.69,3,19.94,19.94,0,0,0,7.09,1.12,21.38,21.38,0,0,0,7.79-1.32,11.68,11.68,0,0,0,5.31-3.91A10.48,10.48,0,0,0,126.79,44V13h-8.46Zm-.69,14.73a6.51,6.51,0,0,1-2.2,3,6.42,6.42,0,0,1-7,0,6.59,6.59,0,0,1-2.18-3,12.59,12.59,0,0,1-.75-4.58,13.33,13.33,0,0,1,.74-4.62,6.83,6.83,0,0,1,2.18-3.13A5.53,5.53,0,0,1,112,19.38a5.62,5.62,0,0,1,3.5,1.1,6.92,6.92,0,0,1,2.2,3.1,13,13,0,0,1,.76,4.69A12.48,12.48,0,0,1,117.64,32.89Z"/><rect class="cls-2" x="130.77" y="13" width="8.52" height="30.72"/><path class="cls-2" d="M135.05.43a4.58,4.58,0,0,0-3.24,1.27,4,4,0,0,0-1.36,3.05,4,4,0,0,0,1.36,3,4.85,4.85,0,0,0,6.51,0,4.06,4.06,0,0,0,1.35-3,4,4,0,0,0-1.35-3A4.62,4.62,0,0,0,135.05.43Z"/><path class="cls-2" d="M178.23,12.61a10.59,10.59,0,0,0-5.85,1.59A8.17,8.17,0,0,0,169,18.43h-.32a7.44,7.44,0,0,0-3-4.25,9,9,0,0,0-5.38-1.57A9.16,9.16,0,0,0,155,14.17a8.46,8.46,0,0,0-3.2,4.26h-.36V13h-8.12V43.72h8.52V25.29a6.32,6.32,0,0,1,.66-3,5,5,0,0,1,1.79-2,4.62,4.62,0,0,1,2.55-.71A4.5,4.5,0,0,1,160.18,21a5,5,0,0,1,1.29,3.61V43.72h8.26V25A5.59,5.59,0,0,1,171,21.1a4.58,4.58,0,0,1,3.62-1.47,4.74,4.74,0,0,1,3.4,1.28,5,5,0,0,1,1.36,3.84v19h8.5V23.06q0-5-2.69-7.72A9.39,9.39,0,0,0,178.23,12.61Z"/><path class="cls-2" d="M215.74,16.49a12.6,12.6,0,0,0-4.6-2.91,16.16,16.16,0,0,0-5.67-1,15,15,0,0,0-7.87,2,13.58,13.58,0,0,0-5.19,5.58,18,18,0,0,0-1.84,8.31,18.11,18.11,0,0,0,1.84,8.41,13,13,0,0,0,5.25,5.48,16.24,16.24,0,0,0,8.15,1.93,17.9,17.9,0,0,0,6.71-1.17,12.25,12.25,0,0,0,4.76-3.28,10.71,10.71,0,0,0,2.45-4.95l-7.88-.51a5.14,5.14,0,0,1-1.28,2,5.2,5.2,0,0,1-2,1.2,8,8,0,0,1-2.6.4,7.27,7.27,0,0,1-3.7-.9,6.09,6.09,0,0,1-2.41-2.56,8.47,8.47,0,0,1-.85-3.93v0h20.92V28.21a19.59,19.59,0,0,0-1.1-6.86A13.21,13.21,0,0,0,215.74,16.49ZM199,25.26a6.82,6.82,0,0,1,.82-3,6.38,6.38,0,0,1,2.33-2.37,7,7,0,0,1,6.7-.08A5.71,5.71,0,0,1,211.09,22a6.52,6.52,0,0,1,.8,3.25Z"/><path class="cls-2" d="M246,14a10.76,10.76,0,0,0-5.58-1.4,10.37,10.37,0,0,0-5.82,1.57,8.58,8.58,0,0,0-3.42,4.25h-.36V13h-8.12V43.72h8.52V26a7.41,7.41,0,0,1,.75-3.39,5.17,5.17,0,0,1,2-2.15,6.12,6.12,0,0,1,3-.73,5.18,5.18,0,0,1,4,1.59,6.21,6.21,0,0,1,1.44,4.4v18H251V24.16A13.47,13.47,0,0,0,249.65,18,9.5,9.5,0,0,0,246,14Z"/><path class="cls-2" d="M274.55,13V30.64a6.59,6.59,0,0,1-.81,3.46,5.43,5.43,0,0,1-2.17,2.11,6,6,0,0,1-2.88.71,5,5,0,0,1-3.86-1.57A6.22,6.22,0,0,1,263.37,31V13h-8.52V32.56a13.65,13.65,0,0,0,1.33,6.18,9.58,9.58,0,0,0,3.65,4,10.39,10.39,0,0,0,5.42,1.4,10.14,10.14,0,0,0,5.87-1.64,9.06,9.06,0,0,0,3.45-4.33h.32v5.57h8.18V13Z"/><polygon class="cls-2" points="277.99 0 270.12 0 265.88 9.1 271.89 9.1 277.99 0"/></svg>