<svg id="Capa_1" data-name="Capa 1" xmlns="http://www.w3.org/2000/svg" viewBox="0 0 297.38 59.26"><defs><style>.cls-1{fill:#262626;}</style></defs><path class="cls-1" d="M8.1,44.81c-.18,1.73-.11,1.86,1.24,2.42A4.17,4.17,0,0,0,11.5,46c1.58-1.6,3.18-3.19,4.78-4.78.37-.37.75-.73,1.08-1,1.29.09,1.29.09,1.32,1.46l-2.06,2.07-3.85,3.87a3.26,3.26,0,0,0-1.15,2l.52,1,1,.33a3.22,3.22,0,0,0,2.11-1.16c1.57-1.61,3.18-3.19,4.75-4.8A13.15,13.15,0,0,1,21,43.81c.95-.14,1.38.24,1.59,1.17-.27.33-.56.76-.92,1.13-1.71,1.74-3.45,3.46-5.16,5.2a5.24,5.24,0,0,0-.88,1.12,1.62,1.62,0,0,0,.37,2,1.51,1.51,0,0,0,1.87,0,5.09,5.09,0,0,0,.87-.74c2-2,4-4,6-6A14.16,14.16,0,0,0,27,44.91a7.32,7.32,0,0,0,.69-6.78L48.29,18.78C49.67,19.9,51,21,52.39,22.11a13.78,13.78,0,0,1,2.85,3.2c2.27,3.22,1.74,6.4-.4,9.27a23.2,23.2,0,0,1-4.43,4.26A117.06,117.06,0,0,1,38.12,47c-4.56,2.72-9.22,5.27-14,7.55C21.44,55.85,18.69,57,16,58.1a14.55,14.55,0,0,1-5.29,1.16c-2.87,0-5.47-.77-7.16-3.4A14,14,0,0,1,1.4,50.13C1,47.06.62,44,.21,40.82,1.29,39.9,2.33,39,3.4,38.13a12.66,12.66,0,0,1,2.11-1.47,3.9,3.9,0,0,1,2.76-.42,7.62,7.62,0,0,0,2.29.13c1.66-.09,2.76-1.19,3.8-2.32A48.92,48.92,0,0,0,21.23,23.5c2.15-4.06,4-8.25,5.8-12.48a2.56,2.56,0,0,0,.2-1c-4.7,3.69-9.08,7.71-13.56,11.62S4.85,29.52.09,33.45c0-.71-.07-1.12-.07-1.54,0-2.06-.06-4.12,0-6.18C.2,22,.37,18.18.65,14.42a47.84,47.84,0,0,1,.83-5.95A13.25,13.25,0,0,1,4,2.72,7.29,7.29,0,0,1,8.75.12a14.18,14.18,0,0,1,7.13,1A119.7,119.7,0,0,1,32.94,9.27c2.9,1.66,5.78,3.36,8.67,5.06.44.26.85.58,1.4,1L24.82,35l-1.44-.37a6.79,6.79,0,0,0-5,.7,14.13,14.13,0,0,0-3.54,2.65C13,39.79,11.09,41.6,9.23,43.45A14.5,14.5,0,0,0,8.1,44.81Z"/><path class="cls-1" d="M87,45.53H81.5a76,76,0,0,1-.17-8.11c0-2.62,0-5.25,0-7.87A58.9,58.9,0,0,0,81,21.33L76.41,27.7c-1.91-2-3-4.33-4.85-6.63a14.45,14.45,0,0,0-.24,1.75c0,6.73,0,13.46,0,20.18,0,.8-.07,1.59-.12,2.48a15.07,15.07,0,0,1-5.53-.08V12.09c2-.55,4-.22,6.08-.26,1.44,2.11,2.89,4.26,4.47,6.57,2-2,3-4.46,4.79-6.5H86.7a1.23,1.23,0,0,1,.2.19c0,.06.12.13.12.2q.06,15.87.1,31.74C87.12,44.44,87.06,44.84,87,45.53Z"/><path class="cls-1" d="M158.93,45.55h-5.58a13.2,13.2,0,0,1-.23-1.72c0-2.62,0-5.25,0-7.88,0-3.32-1.65-4.9-5-4.92h-2.35c-.18,4.92.05,9.64-.18,14.28a10.19,10.19,0,0,1-5.55,0v-33c.28-.22.41-.4.53-.4a82.7,82.7,0,0,1,10.08,0,9.55,9.55,0,0,1,7.11,14.88c-.4.61-.81,1.21-1.19,1.77a35.91,35.91,0,0,1,1.92,4,11.27,11.27,0,0,1,.47,3.38C159,39.06,158.93,42.17,158.93,45.55Zm-13.28-20.5h5.83l2-2.14a4.21,4.21,0,0,0-2.23-5.12h-5.56v7.26Z"/><path class="cls-1" d="M190.37,28.73c-.52,5.61.25,11.12,0,16.78h-5.28c0-.78-.12-1.57-.12-2.35,0-7.77,0-15.54,0-23.3,0-1.63-.19-3.26-.23-4.89,0-1,0-1.92.07-2.9,1.59-.47,3-.21,4.59-.25,2.57,6,5.16,12.06,8,18.65a9.31,9.31,0,0,0,.39-1.72c-.09-4.58-.22-9.16-.32-13.74,0-1,0-1.94,0-3.09,1-.05,1.76-.1,2.55-.12s1.63,0,2.36,0c.15.17.21.22.26.29s.12.13.12.2q.06,16.1.1,32.19a8.78,8.78,0,0,1-.14,1.07h-4.06C195.66,40.07,193.43,34.19,190.37,28.73Z"/><path class="cls-1" d="M247.05,11.81c3.5,0,6.62-.23,9.7,0a9.58,9.58,0,0,1,9,9.61c.22,4.67.22,9.35,0,14-.27,5.61-3.62,9.54-9.69,10.13a79.42,79.42,0,0,1-8.59,0c-.13,0-.26-.17-.43-.28Zm5.7,27.73a2.17,2.17,0,0,0,.54.24c.57,0,1.15,0,1.72,0,3.34,0,5-1.63,5-5,0-4.17-.06-8.34,0-12.5a4.53,4.53,0,0,0-2.48-4.58h-4.78Z"/><path class="cls-1" d="M162.43,28.69c0-2.79-.07-5.58,0-8.36a9.24,9.24,0,0,1,18.18-2A13.4,13.4,0,0,1,181.1,22c.05,4.67,0,9.35,0,14a9.86,9.86,0,0,1-8.43,9.92,8.39,8.39,0,0,1-4-.53,9.2,9.2,0,0,1-6.24-9c0-2.55,0-5.09,0-7.63Zm12.88.06h0V22.61a14.67,14.67,0,0,0-.05-2.2,3.54,3.54,0,0,0-2.53-3,3.14,3.14,0,0,0-3.58.91A5.21,5.21,0,0,0,168,21.15c-.12,5-.1,10,0,15a4.1,4.1,0,0,0,3.73,4.14,3.88,3.88,0,0,0,3.61-4.15c0-.41,0-.82,0-1.23Z"/><path class="cls-1" d="M278.71,34H284c.07.68.08,1.31.2,1.93a8.66,8.66,0,0,0,.63,2.32,3.66,3.66,0,0,0,3.65,2,3.86,3.86,0,0,0,3-3.44,7.67,7.67,0,0,0-.05-1.38c-.71-1.54-2.11-2.14-3.36-2.89-1.54-.93-3.19-1.69-4.69-2.68a10.28,10.28,0,0,1-4-12.72,9,9,0,0,1,8.7-5.69,9.22,9.22,0,0,1,8.77,7,17.54,17.54,0,0,1,.35,6.45h-5.62V19.8a15.12,15.12,0,0,0-1.24-1.56,3.52,3.52,0,0,0-4.3-.54A4.37,4.37,0,0,0,284.31,22a5.44,5.44,0,0,0,3,3.7c1.89,1,3.78,2,5.59,3.1a8.77,8.77,0,0,1,4.49,7.68c.09,4.33-3.86,8.81-7.86,9.4a9.59,9.59,0,0,1-10.32-6.09A12.81,12.81,0,0,1,278.71,34Z"/><path class="cls-1" d="M95.2,45.47a13.19,13.19,0,0,1-5.52-.12c2-11.16,4-22.22,6-33.46,2.32-.19,4.58-.06,7.06-.1,1.13,3.61,1.37,7.36,2.08,11s1.32,7.56,2,11.34,1.28,7.37,1.93,11.13c-1.87.8-3.63.19-5.48.43-.27-1.4-.5-2.57-.74-3.84h-6.6C95.66,43.07,95.43,44.23,95.2,45.47Zm4.26-23.15C98.4,27,97.52,31.57,96.91,36.4c1.66.08,3.08.33,4.6-.24C100.82,31.49,100.14,26.9,99.46,22.32Z"/><path class="cls-1" d="M211.58,11.94h7.28c1.92,11.18,3.83,22.25,5.75,33.43-1.81.55-3.5.21-5.4.27-.27-1.2-.53-2.36-.82-3.7a29.27,29.27,0,0,0-6.5-.11l-.82,3.71h-5.31c.2-3.83,1.21-7.44,1.79-11.1s1.31-7.57,2-11.34S210.88,15.74,211.58,11.94Zm5.86,24.41c-.67-4.63-1.32-9.06-2-13.5l-.52,0c-.73,4.44-1.55,8.87-2.11,13.52Z"/><path class="cls-1" d="M128.85,23.39h-5.09c-1-5.67-1.48-6.25-5.22-6.08a4.22,4.22,0,0,0-2.45,4.37c.08,4.6,0,9.19,0,13.79a8.26,8.26,0,0,0,.42,2.62,3.16,3.16,0,0,0,3,2.16,2.94,2.94,0,0,0,3-1.79,44.65,44.65,0,0,0,1.4-4.48c.55,0,1.42,0,2.29-.06s1.63,0,2.4,0c1.53,4.51-1.34,9.85-5.68,11.44a9.09,9.09,0,0,1-11.21-4.06,8.77,8.77,0,0,1-1.43-4.63c0-5.25-.1-10.5,0-15.75a9.2,9.2,0,0,1,4.46-8,9.05,9.05,0,0,1,12.91,3.3A10.45,10.45,0,0,1,128.85,23.39Z"/><path class="cls-1" d="M227.85,11.87h5.36a42.56,42.56,0,0,1,.2,6.85c.05,2.37,0,4.75,0,7.13s0,4.58,0,6.88v7h10.06v5.47c-1.64.55-10.62.71-15.41.29-.79-.7-.46-1.66-.45-2.52,0-1.63.21-3.26.21-4.89,0-7.94,0-15.89,0-23.84Z"/><path class="cls-1" d="M275.59,12c-.33,3.84-.62,7.33-.93,10.93-1.5.54-3,.25-4.78.23-.21-3.79.45-7.44.66-11.16Z"/></svg>